# xmcd
#
# Track frame offsets: 
#        150
#        14031
#        29175
#        43197
#        57290
#        71329
#        85046
#        98453
#        112416
#        125064
#        139883
#        154189
#        166644
#        181293
#        195420
#        208457
#        221991
#        235050
#        248214
#        262857
#        276957
#        290883
#        304523
#        318068
#
# Disc length: 4403 seconds
#
# Revision: 1
# Processed by: cddbd v1.5.2PL0 Copyright (c) Steve Scherf et al.
# Submitted via: ExactAudioCopyFreeDBPlugin 1.0
#
DISCID=6c113118
DTITLE=Teddy Wilson - Classic Jazz Archive
DYEAR=2004
DGENRE=Jazz
TTITLE0=Somebody Loves Me
TTITLE1=Sweet And Simple
TTITLE2=Liza
TTITLE3=Rosetta
TTITLE4=I Wished On The Moon
TTITLE5=Miss Brown To You
TTITLE6=What A Night, What A Moon, What A Girl
TTITLE7=Sweet Lorraine
TTITLE8=It's Too Hot For Words
TTITLE9=Every Now And Then
TTITLE10=It Never Dawned On Me
TTITLE11=Yankee Doodle Never Went To Town
TTITLE12=Eeny Meeny Miny Mo
TTITLE13=I Found A Dream
TTITLE14=On Treasure Island
TTITLE15=Sugar Plum
TTITLE16=You Let Me Down
TTITLE17=Spreadin' Rhythm Around
TTITLE18=I Feel Like A Feather In The Breeze
TTITLE19=Breaking In A Pair Of Shoes
TTITLE20=Life Begins When You're In Love
TTITLE21=(If I Had) Rhythm In My Nursery Rhymes
TTITLE22=My Melancholy Baby
TTITLE23=Christopher Columbus
EXTD=
EXTT0=
EXTT1=
EXTT2=
EXTT3=
EXTT4=
EXTT5=
EXTT6=
EXTT7=
EXTT8=
EXTT9=
EXTT10=
EXTT11=
EXTT12=
EXTT13=
EXTT14=
EXTT15=
EXTT16=
EXTT17=
EXTT18=
EXTT19=
EXTT20=
EXTT21=
EXTT22=
EXTT23=
PLAYORDER=
